PathFileType	4	(X/Y/Z)	s02c0202.trc
DataRate	CameraRate	NumFrames	NumMarkers	Units	OrigDataRate	OrigDataStartFrame	OrigNumFrames
200	200	4	50	mm	200	750	2000
Frame#	Time	racr			lacr			c7			jug			rlel			rdr			llel			ldr			s2			lic			ric			lasi			rasi			rpsi			lpsi			rgt			lgt			rth1			rth2			rth3			rth4			rlfc			rmfc			rsh1			rsh2			rsh3			rsh4			rlmal			rmmal			rtoe			rmt5			rmt1			lth1			lth2			lth4			lth3			llfc			lmfc			lsh1			lsh2			lsh3			lsh4			llmal			lmmal			lcal			ltoe			lmt5			SBIKE			LBIKE			RBIKE			
		X1	Y1	Z1	X2	Y2	Z2	X3	Y3	Z3	X4	Y4	Z4	X5	Y5	Z5	X6	Y6	Z6	X7	Y7	Z7	X8	Y8	Z8	X9	Y9	Z9	X10	Y10	Z10	X11	Y11	Z11	X12	Y12	Z12	X13	Y13	Z13	X14	Y14	Z14	X15	Y15	Z15	X16	Y16	Z16	X17	Y17	Z17	X18	Y18	Z18	X19	Y19	Z19	X20	Y20	Z20	X21	Y21	Z21	X22	Y22	Z22	X23	Y23	Z23	X24	Y24	Z24	X25	Y25	Z25	X26	Y26	Z26	X27	Y27	Z27	X28	Y28	Z28	X29	Y29	Z29	X30	Y30	Z30	X31	Y31	Z31	X32	Y32	Z32	X33	Y33	Z33	X34	Y34	Z34	X35	Y35	Z35	X36	Y36	Z36	X37	Y37	Z37	X38	Y38	Z38	X39	Y39	Z39	X40	Y40	Z40	X41	Y41	Z41	X42	Y42	Z42	X43	Y43	Z43	X44	Y44	Z44	X45	Y45	Z45	X46	Y46	Z46	X47	Y47	Z47	X48	Y48	Z48	X49	Y49	Z49	X50	Y50	Z50	
750	3.7500	513.037351	1204.133833	-129.957596	559.952488	1207.856445	-453.607678	527.522831	1250.161051	-298.590002	475.688699	1121.142412	-297.647844	507.797052	954.763560	-47.595765	689.654017	881.639175	-129.188787	504.679064	978.775694	-616.307312	677.217774	876.800127	-525.754219	1.548411	1116.530350	-358.715050	134.661412	1081.750230	-493.612577	118.419496	1114.549537	-200.328616	173.685522	1051.367023	-461.983113	172.980670	1091.205511	-224.741306	18.140119	1147.472713	-316.663998	29.410421	1152.465056	-401.581618	106.412524	1047.173511	-164.750172	81.504141	1002.179280	-517.561872	195.194320	1004.191571	-156.960016	278.196909	974.276042	-161.645840	336.225582	915.581041	-137.920876	294.680455	995.850096	-187.905529	431.981452	802.442884	-170.322282	423.525778	779.939842	-280.003746	426.484031	688.899628	-149.639607	428.496010	600.589404	-165.250346	389.887271	523.488307	-158.511282	439.930311	599.572555	-203.247777	348.508454	411.464679	-160.252968	355.360129	427.484123	-243.404895	563.912751	362.215434	-193.389316	455.304311	344.361829	-133.624665	481.275335	360.211299	-241.959983	205.792653	926.602741	-522.617969	284.006485	888.960325	-515.687361	304.582131	913.933189	-498.417968	332.941416	814.308900	-512.544796	396.940136	741.262008	-486.896196	389.638705	711.720072	-382.331958	343.625950	653.681572	-507.106932	301.258999	579.772608	-492.404878	225.138388	531.990600	-499.099348	315.407855	569.871045	-455.279448	140.278667	463.349706	-492.653789	152.520874	450.635866	-414.579370	64.569652	474.862179	-451.598644	227.849874	239.678133	-434.622827	148.074652	304.616469	-503.079759	-164.536710	857.508830	-315.671662	32.821303	81.103693	-515.473266	33.049746	81.162531	-115.746064	
751	3.7550	513.730052	1203.795433	-129.712744	559.926014	1207.072264	-454.435063	528.294029	1249.985924	-298.993009	475.008398	1121.558943	-298.015475	507.697527	954.395094	-47.687961	689.600719	881.610877	-129.211324	504.293529	977.642387	-616.307898	677.028750	876.206459	-525.424903	1.875513	1116.765266	-357.129346	134.410157	1082.836499	-492.813541	119.465648	1114.099428	-199.245734	173.583125	1052.276103	-461.536339	173.959704	1090.556107	-223.727929	18.905965	1147.562102	-315.327114	29.808024	1152.619796	-400.425580	107.047974	1045.932682	-163.958485	81.198421	1003.369299	-517.029312	196.093811	1001.900248	-156.009631	278.228285	969.643572	-162.074226	335.221487	910.226407	-137.595657	295.287340	991.722275	-186.962341	428.506265	795.876511	-170.250980	420.012433	773.962722	-279.485981	423.785822	682.260345	-149.281701	426.958310	594.271717	-164.361303	389.670238	516.472296	-157.161350	438.331259	593.287725	-202.430769	350.027160	403.717683	-158.961385	356.267827	419.534027	-241.962587	565.018900	352.020888	-193.926085	456.747676	335.396616	-133.220562	482.478031	350.506491	-241.904831	206.191693	929.450449	-522.180586	285.011826	893.010770	-515.536200	305.167255	918.240466	-498.205421	335.086320	819.137860	-512.824559	400.006565	746.403576	-487.590985	392.604211	716.092458	-382.688891	345.718430	659.403900	-507.683398	302.144198	586.191892	-492.920042	225.216692	539.672010	-499.474560	316.276816	575.651005	-455.644522	139.392874	472.339192	-492.849834	151.853216	459.741424	-414.866629	63.484144	483.689040	-451.643141	227.659232	249.283577	-434.717858	147.587311	313.799340	-503.168310	-164.539142	857.520480	-315.660128	32.836554	81.120537	-515.482660	33.061091	81.165033	-115.727531	
752	3.7600	514.533905	1203.790369	-129.533536	559.812812	1206.490882	-455.468248	529.182113	1250.008806	-299.629447	474.230872	1122.285824	-298.477104	507.674698	954.214250	-47.848224	689.534323	881.586555	-129.245148	504.014933	976.581506	-616.354077	676.881274	875.563872	-525.110968	1.602965	1117.310610	-354.530829	133.749647	1084.635428	-490.901967	120.519230	1113.523805	-198.079012	173.047825	1053.849512	-460.000821	174.924196	1089.885459	-222.616018	19.727926	1147.758296	-313.706989	29.768422	1153.125652	-398.388710	107.633015	1044.713106	-163.202370	80.970828	1004.717326	-516.479459	197.080645	999.616762	-154.939283	277.954204	965.129745	-160.497160	334.157364	904.821649	-137.210190	295.858529	987.104848	-186.350747	424.715851	789.267376	-169.973605	414.174914	764.657717	-279.172360	421.047765	675.936167	-148.795999	425.135278	587.710632	-163.434080	388.901928	509.519459	-155.894454	436.389333	586.919904	-201.494826	351.163884	395.909568	-157.517753	357.164428	412.579205	-240.177301	565.693264	341.828791	-194.458901	457.698417	326.362440	-132.905374	482.759973	341.431266	-241.608404	206.673416	932.447609	-521.597406	286.016515	897.255317	-515.303784	305.867303	922.631068	-497.923767	337.594453	824.313288	-513.619704	403.127851	751.818942	-488.311054	396.888158	721.084144	-382.622344	347.994294	665.436970	-508.283360	303.352371	592.819900	-493.492416	225.656885	547.515434	-499.803912	317.518944	581.860037	-456.287884	138.807842	481.345366	-493.021735	151.604916	468.745420	-415.002640	62.736929	492.424471	-451.644317	227.955276	258.781031	-434.720731	147.505468	322.998923	-503.239458	-164.534341	857.487609	-315.509258	32.860730	81.159488	-515.476968	33.049039	81.183256	-115.705526	
753	3.7650	515.480360	1203.989520	-129.318176	559.574264	1206.154103	-456.825117	530.028931	1250.216497	-300.352963	473.547220	1123.164164	-298.929509	507.747348	954.262624	-48.085544	689.485230	881.591041	-129.303838	503.876795	975.542392	-616.532134	676.749433	874.969460	-524.887832	1.960418	1117.515648	-352.633572	133.508715	1086.115233	-489.882558	121.663869	1112.957115	-196.823577	173.036498	1055.210647	-459.390684	175.906292	1089.290816	-221.558162	20.451235	1147.914607	-311.811756	29.660545	1153.860075	-396.050320	108.283443	1043.446313	-162.357496	80.873458	1006.153231	-515.881462	197.971044	997.113952	-153.791354	278.070010	960.718503	-159.859998	332.825053	899.028449	-136.610093	296.312520	982.355088	-185.493078	420.757309	782.441729	-169.469833	411.967570	759.975382	-277.199235	417.688609	669.375092	-147.929637	423.373895	581.102401	-162.460322	387.718893	502.774695	-154.586950	434.012080	580.546201	-200.351202	351.702632	388.071041	-156.048059	358.289767	406.059840	-238.166459	566.043716	332.230793	-194.407082	458.050179	317.379993	-132.469650	482.733212	332.604856	-240.919482	207.196797	935.550649	-521.034343	287.111640	901.571920	-515.123347	306.606464	927.175451	-497.620258	339.831764	829.436998	-514.071106	406.407468	757.493845	-488.955527	402.037659	726.601911	-382.319223	350.529379	671.554519	-508.827045	304.886438	599.616702	-493.950412	226.486440	555.443442	-500.041677	319.062162	588.267469	-456.742444	138.758421	490.375723	-493.109010	151.753139	477.734884	-415.052771	62.493086	501.237666	-451.540088	228.730634	268.314082	-434.705287	147.879631	332.164937	-503.264301	-164.470398	857.484054	-315.516950	32.872023	81.209169	-515.443924	33.070807	81.288931	-115.740271	
